# xmcd CD database file
#
# Track frame offsets:
#	150
#	19911
#	42669
#	67420
#	88875
#	117213
#	138286
#	159763
#	184473
#	207282
#	227748
#	248571
#	270009
#	293044
#	317842
#	337481
#
# Disc length: 4771 seconds
#
# Revision: 0
# Processed by: cddbd v1.5.1PL0 Copyright (c) Steve Scherf et al.
# Submitted via: CDex 1.51
#
DISCID=f112a110
DTITLE=salseros de coyuca - lo mejor de la salsa
DYEAR=2004
DGENRE=Salsa
TTITLE0=hay amor
TTITLE1=la vida futura
TTITLE2=si me ves llorar
TTITLE3=morí
TTITLE4=nunca te diré adios
TTITLE5=de que me sirve quererte
TTITLE6=vuela muy alta
TTITLE7=amor y control
TTITLE8=sentencia de amor
TTITLE9=ella quiere volver
TTITLE10=si estoy contigo
TTITLE11=por mas que intento
TTITLE12=ven a mí
TTITLE13=casi te envidio
TTITLE14=ese
TTITLE15=amor deshechable
EXTD=YEAR: 2004
EXTT0=
EXTT1=
EXTT2=
EXTT3=
EXTT4=
EXTT5=
EXTT6=
EXTT7=
EXTT8=
EXTT9=
EXTT10=
EXTT11=
EXTT12=
EXTT13=
EXTT14=
EXTT15=
PLAYORDER=
